# xmcd
#
# Track frame offsets:
#	150
#	19587
#	35018
#	58807
#	73989
#	95456
#	116302
#	128291
#	139127
#	158927
#	182020
#	203699
#	219074
#	237430
#	259132
#
# Disc length: 3631 seconds
#
# Revision: 1
# Processed by: cddbd v1.5.2PL0 Copyright (c) Steve Scherf et al.
# Submitted via: audiograbber 1.83.01
#
DISCID=cf0e2d0f
DTITLE=KNON 89.3 - Texas Blues Radio Volume 5
DYEAR=2012
DGENRE=Blues
TTITLE0=Sir Loin and The Ass-Kicking Machine - Baby Got a Good Thing
TTITLE1=Michael Jay with the Paul Byrd Band - Letter from Home
TTITLE2=Tutu Jones - Six Pack
TTITLE3=Andrea Dawson - Watch Me Burn
TTITLE4=Dave Milsap - The Devil's Back
TTITLE5=J.J. and The Detonators - Back in the Saddle
TTITLE6=Johnnie Red and The Roosters - Gumbo Mombo
TTITLE7=Sonny Collie - Pack It Up and Go
TTITLE8=Jeff Stone with Charlie Love - So Full of Jive
TTITLE9=Blues Boy Bo - You Lose
TTITLE10=Ruff Kutt Blues Band - The Fowler Street Stumble
TTITLE11=The Tu-Tones - Hip Shakin' Woman
TTITLE12=Kirkland James - Miss You
TTITLE13=Buddy Whittington - Minor Blues
TTITLE14=Chris Watson Band - T-Bone Swing
EXTD=
EXTT0=
EXTT1=
EXTT2=
EXTT3=
EXTT4=
EXTT5=
EXTT6=
EXTT7=
EXTT8=
EXTT9=
EXTT10=
EXTT11=
EXTT12=
EXTT13=
EXTT14=
PLAYORDER=
